<?xml version="1.0" encoding="iso-8859-1"?>
<!-- Uploaded to: SVG Repo, www.svgrepo.com, Generator: SVG Repo Mixer Tools -->
<svg version="1.1" id="Layer_1" xmlns="http://www.w3.org/2000/svg" xmlns:xlink="http://www.w3.org/1999/xlink" 
	 viewBox="0 0 511.99 511.99" xml:space="preserve">
<g>
	<path style="fill:#FFBCAB;" d="M37.096,216.561l-23.844-29.967c-2.003-2.518-2.718-5.826-1.934-8.947l8.06-32.053
		c1.633-6.491,10.056-8.196,14.086-2.852l34.06,45.184L37.096,216.561z"/>
	<path style="fill:#FFBCAB;" d="M475.031,216.561l23.375-29.377c2.299-2.89,3.12-6.686,2.219-10.267l-7.876-31.321
		c-1.633-6.491-10.056-8.196-14.086-2.852l-34.06,45.184L475.031,216.561z"/>
</g>
<path style="fill:#52A2E7;" d="M458.483,170.435l-34.459,43.428l-84.236-44.253c-3.319-1.744-7.013-2.655-10.762-2.655h-50.7
	h-44.523h-50.701c-3.75,0-7.443,0.911-10.762,2.655l-84.236,44.253l-34.459-43.428l-34.453,23.562l42.723,53.842
	c10.074,12.697,28.168,15.617,41.724,6.734l70.485-40.389c2.868-1.643,6.466,0.283,6.688,3.582l10.166,151.048l65.086,20.808
	l65.387-20.808l9.937-150.999c0.217-3.301,3.818-5.233,6.688-3.588l70.412,40.347c13.557,8.883,31.65,5.963,41.725-6.734
	l42.723-53.842L458.483,170.435z"/>
<path style="fill:#315591;" d="M256.064,406.843c-2.082,0-4.122-0.92-5.584-2.511c-2.667-2.902-3.011-3.276-3.201-37.545
	c-0.091-16.421-0.05-39.121,0.122-67.471c0.294-48.236,0.874-96.793,0.879-97.279c0.056-4.617,3.579-8.33,7.884-8.251
	c4.299,0.06,7.739,3.851,7.684,8.466c-0.829,68.99-1.65,180.915-0.407,193.554c0.264,0.841,0.408,1.74,0.408,2.676
	C263.848,403.101,260.363,406.843,256.064,406.843z"/>
<rect x="316.489" y="456.328" transform="matrix(0.3041 -0.9526 0.9526 0.3041 -195.3952 667.8226)" style="fill:#ACD4F3;" width="85.843" height="22.654"/>
<path style="fill:#315591;" d="M150.472,423.33l19.158,60.013l86.433-27.592l103.329-32.986l47.032-15.015
	c11.06-3.531,17.164-15.359,13.633-26.418l-7.197-22.544c-3.075-9.634-13.379-14.951-23.013-11.875l-133.785,42.708L150.472,423.33z
	"/>
<rect x="109.831" y="456.33" transform="matrix(-0.3041 -0.9526 0.9526 -0.3041 -246.3006 755.3943)" style="fill:#ACD4F3;" width="85.843" height="22.654"/>
<path style="fill:#FFBCAB;" d="M255.705,201.571c19.12,0,34.618-15.499,34.618-34.618h-12.356h-44.523h-12.357
	C221.087,186.073,236.586,201.571,255.705,201.571z"/>
<path style="fill:#4E8FE3;" d="M342.497,483.343l19.158-60.013l-239.768-76.541c-9.417-3.006-19.489,2.191-22.495,11.608
	l-7.466,23.386c-3.451,10.811,2.515,22.373,13.326,25.824L342.497,483.343z"/>
<g style="opacity:0.3;">
	<polygon style="fill:#315591;" points="190.98,368.813 256.066,389.622 321.453,368.813 323.287,340.95 189.176,342.012 	"/>
</g>
<path style="fill:#FF9478;" d="M301.825,59.159h4.699c7.126,0,12.903,5.777,12.903,12.903c0,7.126-5.777,12.903-12.903,12.903
	h-7.247h-87.472h-7.247c-7.126,0-12.903-5.777-12.903-12.903c0-7.126,5.777-12.903,12.903-12.903h4.699H301.825z"/>
<rect x="233.807" y="127.124" style="fill:#FFBCAB;" width="44.523" height="43.526"/>
<path style="fill:#FF9478;" d="M233.802,142.641c3.298,1.157,6.835,1.789,10.507,1.789h22.863c3.913,0,7.672-0.717,11.152-2.023
	v-15.28h-44.523L233.802,142.641L233.802,142.641z"/>
<path style="fill:#FFBCAB;" d="M264.285,0c23.532,0,42.006,20.169,39.945,43.611l-5.509,62.677
	c-1.856,16.019-15.422,28.106-31.549,28.106h-22.863c-16.126,0-29.693-12.086-31.549-28.106l-5.509-62.677
	C205.191,20.169,223.665,0,247.197,0H264.285z"/>
<path style="fill:#781900;" d="M244.746,34.976c0,0,16.247,22.846,58.47,23.843l1.337-15.208C306.615,20.169,288.14,0,264.608,0
	H247.52c-23.532,0-42.006,20.169-39.945,43.611l0.822,9.349C232.587,51.42,244.746,34.976,244.746,34.976z"/>
</svg>